<svg xmlns="http://www.w3.org/2000/svg" xmlns:xlink="http://www.w3.org/1999/xlink" contentStyleType="text/css" height="1729px" preserveAspectRatio="none" style="width:1510px;height:1729px;background:#FFFFFF;" version="1.1" viewBox="0 0 1510 1729" width="1510px" zoomAndPan="magnify"><title>Google sign-in</title><defs/><g><text fill="#000000" font-family="sans-serif" font-size="14" font-weight="bold" lengthAdjust="spacing" textLength="97.9932" x="705.1416" y="29.5332">Google sign-in</text><rect fill="none" height="992.1875" style="stroke:#000000;stroke-width:1.5;" width="915.7754" x="364.979" y="481.7891"/><rect fill="none" height="573.2422" style="stroke:#000000;stroke-width:1.5;" width="607.8618" x="569.4551" y="614.0313"/><rect fill="none" height="265.7031" style="stroke:#000000;stroke-width:1.5;" width="701.2993" x="569.4551" y="1201.2734"/><line style="stroke:#C3CAD8;stroke-width:0.5;stroke-dasharray:5.0,5.0;" x1="22" x2="22" y1="121.2188" y2="1647.7344"/><line style="stroke:#C3CAD8;stroke-width:0.5;stroke-dasharray:5.0,5.0;" x1="215.0244" x2="215.0244" y1="121.2188" y2="1647.7344"/><line style="stroke:#C3CAD8;stroke-width:0.5;stroke-dasharray:5.0,5.0;" x1="433.979" x2="433.979" y1="121.2188" y2="1647.7344"/><line style="stroke:#C3CAD8;stroke-width:0.5;stroke-dasharray:5.0,5.0;" x1="660.4551" x2="660.4551" y1="121.2188" y2="1647.7344"/><line style="stroke:#C3CAD8;stroke-width:0.5;stroke-dasharray:5.0,5.0;" x1="866.5054" x2="866.5054" y1="121.2188" y2="1647.7344"/><line style="stroke:#C3CAD8;stroke-width:0.5;stroke-dasharray:5.0,5.0;" x1="1123.1274" x2="1123.1274" y1="121.2188" y2="1647.7344"/><line style="stroke:#C3CAD8;stroke-width:0.5;stroke-dasharray:5.0,5.0;" x1="1206.3618" x2="1206.3618" y1="121.2188" y2="1647.7344"/><line style="stroke:#C3CAD8;stroke-width:0.5;stroke-dasharray:5.0,5.0;" x1="1474.1318" x2="1474.1318" y1="121.2188" y2="1647.7344"/><text fill="#000000" font-family="sans-serif" font-size="14" lengthAdjust="spacing" textLength="29.5586" x="5" y="118.1426">User</text><ellipse cx="22.7793" cy="52.1094" fill="#E2E2F0" rx="8" ry="8" style="stroke:#181818;stroke-width:0.5;"/><path d="M22.7793,60.1094 L22.7793,87.1094 M9.7793,68.1094 L35.7793,68.1094 M22.7793,87.1094 L9.7793,102.1094 M22.7793,87.1094 L35.7793,102.1094 " fill="none" style="stroke:#181818;stroke-width:0.5;"/><text fill="#000000" font-family="sans-serif" font-size="14" lengthAdjust="spacing" textLength="29.5586" x="5" y="1661.2676">User</text><ellipse cx="22.7793" cy="1672.8438" fill="#E2E2F0" rx="8" ry="8" style="stroke:#181818;stroke-width:0.5;"/><path d="M22.7793,1680.8438 L22.7793,1707.8438 M9.7793,1688.8438 L35.7793,1688.8438 M22.7793,1707.8438 L9.7793,1722.8438 M22.7793,1707.8438 L35.7793,1722.8438 " fill="none" style="stroke:#181818;stroke-width:0.5;"/><rect fill="#FDFDFD" height="31.6094" rx="2.5" ry="2.5" style="stroke:#5B5BD6;stroke-width:0.5;" width="65.3447" x="183.0244" y="88.6094"/><text fill="#000000" font-family="sans-serif" font-size="14" lengthAdjust="spacing" textLength="51.3447" x="190.0244" y="110.1426">Browser</text><rect fill="#FDFDFD" height="31.6094" rx="2.5" ry="2.5" style="stroke:#5B5BD6;stroke-width:0.5;" width="65.3447" x="183.0244" y="1646.7344"/><text fill="#000000" font-family="sans-serif" font-size="14" lengthAdjust="spacing" textLength="51.3447" x="190.0244" y="1668.2676">Browser</text><rect fill="#FDFDFD" height="49.2188" rx="2.5" ry="2.5" style="stroke:#5B5BD6;stroke-width:0.5;" width="118.2549" x="374.979" y="71"/><text fill="#000000" font-family="sans-serif" font-size="14" lengthAdjust="spacing" textLength="54.4824" x="406.8652" y="92.5332">Backend</text><text fill="#000000" font-family="sans-serif" font-size="14" lengthAdjust="spacing" textLength="104.2549" x="381.979" y="110.1426">(Spring Security)</text><rect fill="#FDFDFD" height="49.2188" rx="2.5" ry="2.5" style="stroke:#5B5BD6;stroke-width:0.5;" width="118.2549" x="374.979" y="1646.7344"/><text fill="#000000" font-family="sans-serif" font-size="14" lengthAdjust="spacing" textLength="54.4824" x="406.8652" y="1668.2676">Backend</text><text fill="#000000" font-family="sans-serif" font-size="14" lengthAdjust="spacing" textLength="104.2549" x="381.979" y="1685.877">(Spring Security)</text><rect fill="#FDFDFD" height="31.6094" rx="2.5" ry="2.5" style="stroke:#5B5BD6;stroke-width:0.5;" width="163.4131" x="579.4551" y="88.6094"/><text fill="#000000" font-family="sans-serif" font-size="14" lengthAdjust="spacing" textLength="149.4131" x="586.4551" y="110.1426">OAuth2SuccessHandler</text><rect fill="#FDFDFD" height="31.6094" rx="2.5" ry="2.5" style="stroke:#5B5BD6;stroke-width:0.5;" width="163.4131" x="579.4551" y="1646.7344"/><text fill="#000000" font-family="sans-serif" font-size="14" lengthAdjust="spacing" textLength="149.4131" x="586.4551" y="1668.2676">OAuth2SuccessHandler</text><rect fill="#FDFDFD" height="31.6094" rx="2.5" ry="2.5" style="stroke:#5B5BD6;stroke-width:0.5;" width="140.0684" x="796.5054" y="88.6094"/><text fill="#000000" font-family="sans-serif" font-size="14" lengthAdjust="spacing" textLength="126.0684" x="803.5054" y="110.1426">OAuthSignInService</text><rect fill="#FDFDFD" height="31.6094" rx="2.5" ry="2.5" style="stroke:#5B5BD6;stroke-width:0.5;" width="140.0684" x="796.5054" y="1646.7344"/><text fill="#000000" font-family="sans-serif" font-size="14" lengthAdjust="spacing" textLength="126.0684" x="803.5054" y="1668.2676">OAuthSignInService</text><text fill="#000000" font-family="sans-serif" font-size="14" lengthAdjust="spacing" textLength="34.2344" x="1103.1274" y="118.1426">users</text><path d="M1105.2446,67.6094 C1105.2446,57.6094 1123.2446,57.6094 1123.2446,57.6094 C1123.2446,57.6094 1141.2446,57.6094 1141.2446,67.6094 L1141.2446,93.6094 C1141.2446,103.6094 1123.2446,103.6094 1123.2446,103.6094 C1123.2446,103.6094 1105.2446,103.6094 1105.2446,93.6094 L1105.2446,67.6094 " fill="#E2E2F0" style="stroke:#181818;stroke-width:1.5;"/><path d="M1105.2446,67.6094 C1105.2446,77.6094 1123.2446,77.6094 1123.2446,77.6094 C1123.2446,77.6094 1141.2446,77.6094 1141.2446,67.6094 " fill="none" style="stroke:#181818;stroke-width:1.5;"/><text fill="#000000" font-family="sans-serif" font-size="14" lengthAdjust="spacing" textLength="34.2344" x="1103.1274" y="1661.2676">users</text><path d="M1105.2446,1674.3438 C1105.2446,1664.3438 1123.2446,1664.3438 1123.2446,1664.3438 C1123.2446,1664.3438 1141.2446,1664.3438 1141.2446,1674.3438 L1141.2446,1700.3438 C1141.2446,1710.3438 1123.2446,1710.3438 1123.2446,1710.3438 C1123.2446,1710.3438 1105.2446,1710.3438 1105.2446,1700.3438 L1105.2446,1674.3438 " fill="#E2E2F0" style="stroke:#181818;stroke-width:1.5;"/><path d="M1105.2446,1674.3438 C1105.2446,1684.3438 1123.2446,1684.3438 1123.2446,1684.3438 C1123.2446,1684.3438 1141.2446,1684.3438 1141.2446,1674.3438 " fill="none" style="stroke:#181818;stroke-width:1.5;"/><rect fill="#FDFDFD" height="49.2188" rx="2.5" ry="2.5" style="stroke:#5B5BD6;stroke-width:0.5;" width="107.3926" x="1153.3618" y="71"/><text fill="#000000" font-family="sans-serif" font-size="14" lengthAdjust="spacing" textLength="28.0137" x="1193.0513" y="92.5332">SPA</text><text fill="#000000" font-family="sans-serif" font-size="14" lengthAdjust="spacing" textLength="93.3926" x="1160.3618" y="110.1426">/oauth/callback</text><rect fill="#FDFDFD" height="49.2188" rx="2.5" ry="2.5" style="stroke:#5B5BD6;stroke-width:0.5;" width="107.3926" x="1153.3618" y="1646.7344"/><text fill="#000000" font-family="sans-serif" font-size="14" lengthAdjust="spacing" textLength="28.0137" x="1193.0513" y="1668.2676">SPA</text><text fill="#000000" font-family="sans-serif" font-size="14" lengthAdjust="spacing" textLength="93.3926" x="1160.3618" y="1685.877">/oauth/callback</text><rect fill="#FDFDFD" height="31.6094" rx="2.5" ry="2.5" style="stroke:#5B5BD6;stroke-width:0.5;" width="59.1445" x="1445.1318" y="88.6094"/><text fill="#000000" font-family="sans-serif" font-size="14" lengthAdjust="spacing" textLength="45.1445" x="1452.1318" y="110.1426">Google</text><rect fill="#FDFDFD" height="31.6094" rx="2.5" ry="2.5" style="stroke:#5B5BD6;stroke-width:0.5;" width="59.1445" x="1445.1318" y="1646.7344"/><text fill="#000000" font-family="sans-serif" font-size="14" lengthAdjust="spacing" textLength="45.1445" x="1452.1318" y="1668.2676">Google</text><polygon fill="#59606F" points="203.6968,149.5703,213.6968,153.5703,203.6968,157.5703,207.6968,153.5703" style="stroke:#59606F;stroke-width:1.0;"/><line style="stroke:#59606F;stroke-width:1.0;" x1="22.7793" x2="209.6968" y1="153.5703" y2="153.5703"/><text fill="#000000" font-family="sans-serif" font-size="13" lengthAdjust="spacing" textLength="168.9175" x="29.7793" y="148.7139">clicks "Continue with Google"</text><polygon fill="#59606F" points="422.1064,179.9219,432.1064,183.9219,422.1064,187.9219,426.1064,183.9219" style="stroke:#59606F;stroke-width:1.0;"/><line style="stroke:#59606F;stroke-width:1.0;" x1="215.6968" x2="428.1064" y1="183.9219" y2="183.9219"/><text fill="#000000" font-family="sans-serif" font-size="13" lengthAdjust="spacing" textLength="194.4097" x="222.6968" y="179.0654">GET /oauth2/authorization/google</text><path d="M439,196.9219 L439,304.9219 L747,304.9219 L747,206.9219 L737,196.9219 L439,196.9219 " fill="#FFF8E1" style="stroke:#C2670A;stroke-width:0.5;"/><path d="M737,196.9219 L737,206.9219 L747,206.9219 L737,196.9219 " fill="#FFF8E1" style="stroke:#C2670A;stroke-width:0.5;"/><text fill="#000000" font-family="sans-serif" font-size="13" lengthAdjust="spacing" textLength="283.9941" x="445" y="215.417">Both hops must be the same origin. Spring keeps</text><text fill="#000000" font-family="sans-serif" font-size="13" lengthAdjust="spacing" textLength="265.2368" x="445" y="231.7686">the pending authorization request in a session</text><text fill="#000000" font-family="sans-serif" font-size="13" lengthAdjust="spacing" textLength="273.895" x="445" y="248.1201">cookie; start on one origin and return to another</text><text fill="#000000" font-family="sans-serif" font-size="13" lengthAdjust="spacing" textLength="287.5869" x="445" y="264.4717">and the callback dies on a state mismatch. That is</text><text fill="#000000" font-family="sans-serif" font-size="13" lengthAdjust="spacing" textLength="286.1841" x="445" y="280.8232">why production points straight at the backend and</text><text fill="#000000" font-family="sans-serif" font-size="13" lengthAdjust="spacing" textLength="174.1479" x="445" y="297.1748">not through the Vercel rewrite.</text><polygon fill="#59606F" points="226.6968,328.3828,216.6968,332.3828,226.6968,336.3828,222.6968,332.3828" style="stroke:#59606F;stroke-width:1.0;"/><line style="stroke:#59606F;stroke-width:1.0;stroke-dasharray:2.0,2.0;" x1="220.6968" x2="433.1064" y1="332.3828" y2="332.3828"/><text fill="#000000" font-family="sans-serif" font-size="13" lengthAdjust="spacing" textLength="81.6753" x="232.6968" y="327.5264">302 to Google</text><polygon fill="#59606F" points="1462.7041,358.7344,1472.7041,362.7344,1462.7041,366.7344,1466.7041,362.7344" style="stroke:#59606F;stroke-width:1.0;"/><line style="stroke:#59606F;stroke-width:1.0;" x1="215.6968" x2="1468.7041" y1="362.7344" y2="362.7344"/><text fill="#000000" font-family="sans-serif" font-size="13" lengthAdjust="spacing" textLength="45.5317" x="222.6968" y="357.8779">consent</text><polygon fill="#59606F" points="226.6968,389.0859,216.6968,393.0859,226.6968,397.0859,222.6968,393.0859" style="stroke:#59606F;stroke-width:1.0;"/><line style="stroke:#59606F;stroke-width:1.0;stroke-dasharray:2.0,2.0;" x1="220.6968" x2="1473.7041" y1="393.0859" y2="393.0859"/><text fill="#000000" font-family="sans-serif" font-size="13" lengthAdjust="spacing" textLength="136.9507" x="232.6968" y="388.2295">302 back with ?code=...</text><polygon fill="#59606F" points="422.1064,419.4375,432.1064,423.4375,422.1064,427.4375,426.1064,423.4375" style="stroke:#59606F;stroke-width:1.0;"/><line style="stroke:#59606F;stroke-width:1.0;" x1="215.6968" x2="428.1064" y1="423.4375" y2="423.4375"/><text fill="#000000" font-family="sans-serif" font-size="13" lengthAdjust="spacing" textLength="179.2388" x="222.6968" y="418.5811">GET /login/oauth2/code/google</text><line style="stroke:#59606F;stroke-width:1.0;" x1="434.1064" x2="476.1064" y1="453.7891" y2="453.7891"/><line style="stroke:#59606F;stroke-width:1.0;" x1="476.1064" x2="476.1064" y1="453.7891" y2="466.7891"/><line style="stroke:#59606F;stroke-width:1.0;" x1="435.1064" x2="476.1064" y1="466.7891" y2="466.7891"/><polygon fill="#59606F" points="445.1064,462.7891,435.1064,466.7891,445.1064,470.7891,441.1064,466.7891" style="stroke:#59606F;stroke-width:1.0;"/><text fill="#000000" font-family="sans-serif" font-size="13" lengthAdjust="spacing" textLength="202.3696" x="441.1064" y="448.9326">exchange the code, load the profile</text><path d="M364.979,481.7891 L425.1499,481.7891 L425.1499,490.1406 L415.1499,500.1406 L364.979,500.1406 L364.979,481.7891 " fill="#EEEEEE" style="stroke:#000000;stroke-width:1.5;"/><rect fill="none" height="992.1875" style="stroke:#000000;stroke-width:1.5;" width="915.7754" x="364.979" y="481.7891"/><text fill="#000000" font-family="sans-serif" font-size="13" font-weight="bold" lengthAdjust="spacing" textLength="15.1709" x="379.979" y="496.2842">alt</text><text fill="#000000" font-family="sans-serif" font-size="11" font-weight="bold" lengthAdjust="spacing" textLength="231.666" x="440.1499" y="495.208">[the provider declined, or state mismatched]</text><polygon fill="#59606F" points="1195.0581,518.4922,1205.0581,522.4922,1195.0581,526.4922,1199.0581,522.4922" style="stroke:#59606F;stroke-width:1.0;"/><line style="stroke:#59606F;stroke-width:1.0;" x1="434.1064" x2="1201.0581" y1="522.4922" y2="522.4922"/><text fill="#000000" font-family="sans-serif" font-size="13" lengthAdjust="spacing" textLength="241.6807" x="441.1064" y="517.6357">redirect #error=... (OAuth2FailureHandler)</text><line style="stroke:#000000;stroke-width:1.0;stroke-dasharray:2.0,2.0;" x1="364.979" x2="1280.7544" y1="531.4922" y2="531.4922"/><text fill="#000000" font-family="sans-serif" font-size="11" font-weight="bold" lengthAdjust="spacing" textLength="88.623" x="369.979" y="542.9111">[identity verified]</text><polygon fill="#59606F" points="649.1616,564.6797,659.1616,568.6797,649.1616,572.6797,653.1616,568.6797" style="stroke:#59606F;stroke-width:1.0;"/><line style="stroke:#59606F;stroke-width:1.0;" x1="434.1064" x2="655.1616" y1="568.6797" y2="568.6797"/><text fill="#000000" font-family="sans-serif" font-size="13" lengthAdjust="spacing" textLength="203.0552" x="441.1064" y="563.8232">onAuthenticationSuccess(principal)</text><polygon fill="#59606F" points="854.5396,595.0313,864.5396,599.0313,854.5396,603.0313,858.5396,599.0313" style="stroke:#59606F;stroke-width:1.0;"/><line style="stroke:#59606F;stroke-width:1.0;" x1="661.1616" x2="860.5396" y1="599.0313" y2="599.0313"/><text fill="#000000" font-family="sans-serif" font-size="13" lengthAdjust="spacing" textLength="160.3989" x="668.1616" y="594.1748">signIn(email, name, picture)</text><path d="M569.4551,614.0313 L629.626,614.0313 L629.626,622.3828 L619.626,632.3828 L569.4551,632.3828 L569.4551,614.0313 " fill="#EEEEEE" style="stroke:#000000;stroke-width:1.5;"/><rect fill="none" height="573.2422" style="stroke:#000000;stroke-width:1.5;" width="607.8618" x="569.4551" y="614.0313"/><text fill="#000000" font-family="sans-serif" font-size="13" font-weight="bold" lengthAdjust="spacing" textLength="15.1709" x="584.4551" y="628.5264">alt</text><text fill="#000000" font-family="sans-serif" font-size="11" font-weight="bold" lengthAdjust="spacing" textLength="121.0054" x="644.626" y="627.4502">[no email in the profile]</text><polygon fill="#59606F" points="672.1616,650.7344,662.1616,654.7344,672.1616,658.7344,668.1616,654.7344" style="stroke:#59606F;stroke-width:1.0;"/><line style="stroke:#59606F;stroke-width:1.0;stroke-dasharray:2.0,2.0;" x1="666.1616" x2="865.5396" y1="654.7344" y2="654.7344"/><text fill="#000000" font-family="sans-serif" font-size="13" font-weight="bold" lengthAdjust="spacing" textLength="46.96" x="678.1616" y="649.8779">refused</text><path d="M871,667.7344 L871,709.7344 L1110,709.7344 L1110,677.7344 L1100,667.7344 L871,667.7344 " fill="#FFF8E1" style="stroke:#C2670A;stroke-width:0.5;"/><path d="M1100,667.7344 L1100,677.7344 L1110,677.7344 L1100,667.7344 " fill="#FFF8E1" style="stroke:#C2670A;stroke-width:0.5;"/><text fill="#000000" font-family="sans-serif" font-size="13" lengthAdjust="spacing" textLength="136.5635" x="877" y="686.2295">Matching is by address.</text><text fill="#000000" font-family="sans-serif" font-size="13" lengthAdjust="spacing" textLength="218.9561" x="877" y="702.5811">Without one there is nothing to match.</text><line style="stroke:#000000;stroke-width:1.0;stroke-dasharray:2.0,2.0;" x1="569.4551" x2="1177.3169" y1="716.4375" y2="716.4375"/><text fill="#000000" font-family="sans-serif" font-size="11" font-weight="bold" lengthAdjust="spacing" textLength="203.5698" x="574.4551" y="727.8564">[an account already uses that address]</text><polygon fill="#59606F" points="1111.2446,749.625,1121.2446,753.625,1111.2446,757.625,1115.2446,753.625" style="stroke:#59606F;stroke-width:1.0;"/><line style="stroke:#59606F;stroke-width:1.0;" x1="866.5396" x2="1117.2446" y1="753.625" y2="753.625"/><text fill="#000000" font-family="sans-serif" font-size="13" lengthAdjust="spacing" textLength="72.979" x="873.5396" y="748.7686">find by email</text><polygon fill="#59606F" points="672.1616,779.9766,662.1616,783.9766,672.1616,787.9766,668.1616,783.9766" style="stroke:#59606F;stroke-width:1.0;"/><line style="stroke:#59606F;stroke-width:1.0;stroke-dasharray:2.0,2.0;" x1="666.1616" x2="865.5396" y1="783.9766" y2="783.9766"/><text fill="#000000" font-family="sans-serif" font-size="13" lengthAdjust="spacing" textLength="181.3779" x="678.1616" y="779.1201">session for the existing account</text><path d="M871,796.9766 L871,871.9766 L1131,871.9766 L1131,806.9766 L1121,796.9766 L871,796.9766 " fill="#E8F5E9" style="stroke:#C2670A;stroke-width:0.5;"/><path d="M1121,796.9766 L1121,806.9766 L1131,806.9766 L1121,796.9766 " fill="#E8F5E9" style="stroke:#C2670A;stroke-width:0.5;"/><text fill="#000000" font-family="sans-serif" font-size="13" lengthAdjust="spacing" textLength="130.0635" x="877" y="815.4717">Signs in with the role it</text><text fill="#000000" font-family="sans-serif" font-size="13" font-weight="bold" lengthAdjust="spacing" textLength="71.5444" x="1010.6753" y="815.4717">already has</text><text fill="#000000" font-family="sans-serif" font-size="13" lengthAdjust="spacing" textLength="3.6118" x="1082.2197" y="815.4717">.</text><text fill="#000000" font-family="sans-serif" font-size="13" lengthAdjust="spacing" textLength="233.4097" x="877" y="831.8232">No setRole anywhere on this path &#8212; the</text><text fill="#000000" font-family="sans-serif" font-size="13" lengthAdjust="spacing" textLength="239.1733" x="877" y="848.1748">provider proves who somebody is, it does</text><text fill="#000000" font-family="sans-serif" font-size="13" lengthAdjust="spacing" textLength="169.1016" x="877" y="864.5264">not decide what they may do.</text><line style="stroke:#000000;stroke-width:1.0;stroke-dasharray:2.0,2.0;" x1="569.4551" x2="1177.3169" y1="878.3828" y2="878.3828"/><text fill="#000000" font-family="sans-serif" font-size="11" font-weight="bold" lengthAdjust="spacing" textLength="224.8877" x="574.4551" y="889.8018">[unknown address, auto-provisioning OFF]</text><polygon fill="#59606F" points="672.1616,911.5703,662.1616,915.5703,672.1616,919.5703,668.1616,915.5703" style="stroke:#59606F;stroke-width:1.0;"/><line style="stroke:#59606F;stroke-width:1.0;stroke-dasharray:2.0,2.0;" x1="666.1616" x2="865.5396" y1="915.5703" y2="915.5703"/><text fill="#000000" font-family="sans-serif" font-size="13" font-weight="bold" lengthAdjust="spacing" textLength="46.96" x="678.1616" y="910.7139">refused</text><path d="M871,928.5703 L871,987.5703 L1146,987.5703 L1146,938.5703 L1136,928.5703 L871,928.5703 " fill="#FFE0E0" style="stroke:#C2670A;stroke-width:0.5;"/><path d="M1136,928.5703 L1136,938.5703 L1146,938.5703 L1136,928.5703 " fill="#FFE0E0" style="stroke:#C2670A;stroke-width:0.5;"/><text fill="#000000" font-family="sans-serif" font-size="13" lengthAdjust="spacing" textLength="254.3696" x="877" y="947.0654">The default. Otherwise anyone who reaches</text><text fill="#000000" font-family="sans-serif" font-size="13" lengthAdjust="spacing" textLength="252.1924" x="877" y="963.417">the sign-in page becomes a user by clicking</text><text fill="#000000" font-family="sans-serif" font-size="13" lengthAdjust="spacing" textLength="65.0571" x="877" y="979.7686">one button.</text><line style="stroke:#000000;stroke-width:1.0;stroke-dasharray:2.0,2.0;" x1="569.4551" x2="1177.3169" y1="993.625" y2="993.625"/><text fill="#000000" font-family="sans-serif" font-size="11" font-weight="bold" lengthAdjust="spacing" textLength="219.3931" x="574.4551" y="1005.0439">[unknown address, auto-provisioning ON]</text><polygon fill="#59606F" points="1111.2446,1043.1641,1121.2446,1047.1641,1111.2446,1051.1641,1115.2446,1047.1641" style="stroke:#59606F;stroke-width:1.0;"/><line style="stroke:#59606F;stroke-width:1.0;" x1="866.5396" x2="1117.2446" y1="1047.1641" y2="1047.1641"/><text fill="#000000" font-family="sans-serif" font-size="13" lengthAdjust="spacing" textLength="220.4097" x="873.5396" y="1025.9561">create with the configured default role,</text><text fill="#000000" font-family="sans-serif" font-size="13" lengthAdjust="spacing" textLength="232.7051" x="873.5396" y="1042.3076">no password hash, generated username</text><polygon fill="#59606F" points="672.1616,1073.5156,662.1616,1077.5156,672.1616,1081.5156,668.1616,1077.5156" style="stroke:#59606F;stroke-width:1.0;"/><line style="stroke:#59606F;stroke-width:1.0;stroke-dasharray:2.0,2.0;" x1="666.1616" x2="865.5396" y1="1077.5156" y2="1077.5156"/><text fill="#000000" font-family="sans-serif" font-size="13" lengthAdjust="spacing" textLength="161.1479" x="678.1616" y="1072.6592">session for the new account</text><path d="M871,1090.5156 L871,1181.5156 L1167,1181.5156 L1167,1100.5156 L1157,1090.5156 L871,1090.5156 " fill="#FFF8E1" style="stroke:#C2670A;stroke-width:0.5;"/><path d="M1157,1090.5156 L1157,1100.5156 L1167,1100.5156 L1157,1090.5156 " fill="#FFF8E1" style="stroke:#C2670A;stroke-width:0.5;"/><text fill="#000000" font-family="sans-serif" font-size="13" lengthAdjust="spacing" textLength="41.9136" x="877" y="1109.0107">Startup</text><text fill="#000000" font-family="sans-serif" font-size="13" font-weight="bold" lengthAdjust="spacing" textLength="26.0127" x="922.5254" y="1109.0107">fails</text><text fill="#000000" font-family="sans-serif" font-size="13" lengthAdjust="spacing" textLength="123.5698" x="952.1499" y="1109.0107">if that default role is a</text><text fill="#000000" font-family="sans-serif" font-size="13" lengthAdjust="spacing" textLength="275.3169" x="877" y="1125.3623">privileged one, so this can never mint an admin.</text><text fill="#000000" font-family="sans-serif" font-size="13" lengthAdjust="spacing" textLength="264.4878" x="877" y="1141.7139">The generated username is one its owner has</text><text fill="#000000" font-family="sans-serif" font-size="13" lengthAdjust="spacing" textLength="258.6606" x="877" y="1158.0654">never seen &#8212; which is why sign-in must also</text><text fill="#000000" font-family="sans-serif" font-size="13" lengthAdjust="spacing" textLength="94.6626" x="877" y="1174.417">accept an email.</text><path d="M569.4551,1201.2734 L629.626,1201.2734 L629.626,1209.625 L619.626,1219.625 L569.4551,1219.625 L569.4551,1201.2734 " fill="#EEEEEE" style="stroke:#000000;stroke-width:1.5;"/><rect fill="none" height="265.7031" style="stroke:#000000;stroke-width:1.5;" width="701.2993" x="569.4551" y="1201.2734"/><text fill="#000000" font-family="sans-serif" font-size="13" font-weight="bold" lengthAdjust="spacing" textLength="15.1709" x="584.4551" y="1215.7686">alt</text><text fill="#000000" font-family="sans-serif" font-size="11" font-weight="bold" lengthAdjust="spacing" textLength="47.0615" x="644.626" y="1214.6924">[refused]</text><polygon fill="#59606F" points="1195.0581,1237.9766,1205.0581,1241.9766,1195.0581,1245.9766,1199.0581,1241.9766" style="stroke:#59606F;stroke-width:1.0;"/><line style="stroke:#59606F;stroke-width:1.0;" x1="661.1616" x2="1201.0581" y1="1241.9766" y2="1241.9766"/><text fill="#000000" font-family="sans-serif" font-size="13" lengthAdjust="spacing" textLength="157.1616" x="668.1616" y="1237.1201">redirect #error=&lt;message&gt;</text><path d="M666,1254.9766 L666,1345.9766 L943,1345.9766 L943,1264.9766 L933,1254.9766 L666,1254.9766 " fill="#FFE0E0" style="stroke:#C2670A;stroke-width:0.5;"/><path d="M933,1254.9766 L933,1264.9766 L943,1264.9766 L933,1254.9766 " fill="#FFE0E0" style="stroke:#C2670A;stroke-width:0.5;"/><text fill="#000000" font-family="sans-serif" font-size="13" lengthAdjust="spacing" textLength="232.6924" x="672" y="1273.4717">Every refusal is caught here. Letting one</text><text fill="#000000" font-family="sans-serif" font-size="13" lengthAdjust="spacing" textLength="256.8706" x="672" y="1289.8232">propagate renders the backend's error page,</text><text fill="#000000" font-family="sans-serif" font-size="13" lengthAdjust="spacing" textLength="253.2524" x="672" y="1306.1748">on the backend's domain, to somebody who</text><text fill="#000000" font-family="sans-serif" font-size="13" lengthAdjust="spacing" textLength="244.2578" x="672" y="1322.5264">clicked a button on the frontend &#8212; it reads</text><text fill="#000000" font-family="sans-serif" font-size="13" lengthAdjust="spacing" textLength="166.188" x="672" y="1338.8779">as a crash with no way back.</text><line style="stroke:#000000;stroke-width:1.0;stroke-dasharray:2.0,2.0;" x1="569.4551" x2="1270.7544" y1="1352.7344" y2="1352.7344"/><text fill="#000000" font-family="sans-serif" font-size="11" font-weight="bold" lengthAdjust="spacing" textLength="55.6069" x="574.4551" y="1364.1533">[signed in]</text><polygon fill="#59606F" points="1195.0581,1385.9219,1205.0581,1389.9219,1195.0581,1393.9219,1199.0581,1389.9219" style="stroke:#59606F;stroke-width:1.0;"/><line style="stroke:#59606F;stroke-width:1.0;" x1="661.1616" x2="1201.0581" y1="1389.9219" y2="1389.9219"/><text fill="#000000" font-family="sans-serif" font-size="13" lengthAdjust="spacing" textLength="185.3579" x="668.1616" y="1385.0654">redirect #token=&lt;refreshToken&gt;</text><path d="M666,1402.9219 L666,1461.9219 L944,1461.9219 L944,1412.9219 L934,1402.9219 L666,1402.9219 " fill="#FFF8E1" style="stroke:#C2670A;stroke-width:0.5;"/><path d="M934,1402.9219 L934,1412.9219 L944,1412.9219 L934,1402.9219 " fill="#FFF8E1" style="stroke:#C2670A;stroke-width:0.5;"/><text fill="#000000" font-family="sans-serif" font-size="13" lengthAdjust="spacing" textLength="22.4009" x="672" y="1421.417">The</text><text fill="#000000" font-family="sans-serif" font-size="13" font-weight="bold" lengthAdjust="spacing" textLength="55.6182" x="698.0127" y="1421.417">fragment</text><text fill="#000000" font-family="sans-serif" font-size="13" lengthAdjust="spacing" textLength="147.4116" x="753.6309" y="1421.417">, never the query string: a</text><text fill="#000000" font-family="sans-serif" font-size="13" lengthAdjust="spacing" textLength="257.9434" x="672" y="1437.7686">fragment is not sent to any server, so it stays</text><text fill="#000000" font-family="sans-serif" font-size="13" lengthAdjust="spacing" textLength="230.5215" x="672" y="1454.1201">out of access logs and Referer headers.</text><line style="stroke:#59606F;stroke-width:1.0;" x1="1207.0581" x2="1249.0581" y1="1503.3281" y2="1503.3281"/><line style="stroke:#59606F;stroke-width:1.0;" x1="1249.0581" x2="1249.0581" y1="1503.3281" y2="1516.3281"/><line style="stroke:#59606F;stroke-width:1.0;" x1="1208.0581" x2="1249.0581" y1="1516.3281" y2="1516.3281"/><polygon fill="#59606F" points="1218.0581,1512.3281,1208.0581,1516.3281,1218.0581,1520.3281,1214.0581,1516.3281" style="stroke:#59606F;stroke-width:1.0;"/><text fill="#000000" font-family="sans-serif" font-size="13" lengthAdjust="spacing" textLength="253.646" x="1214.0581" y="1498.4717">read the fragment, then history.replaceState</text><polygon fill="#59606F" points="445.1064,1542.6797,435.1064,1546.6797,445.1064,1550.6797,441.1064,1546.6797" style="stroke:#59606F;stroke-width:1.0;"/><line style="stroke:#59606F;stroke-width:1.0;" x1="439.1064" x2="1206.0581" y1="1546.6797" y2="1546.6797"/><text fill="#000000" font-family="sans-serif" font-size="13" lengthAdjust="spacing" textLength="111.9917" x="451.1064" y="1541.8232">POST /auth/refresh</text><path d="M1062,1559.6797 L1062,1601.6797 L1351,1601.6797 L1351,1569.6797 L1341,1559.6797 L1062,1559.6797 " fill="#FFF8E1" style="stroke:#C2670A;stroke-width:0.5;"/><path d="M1341,1559.6797 L1341,1569.6797 L1351,1569.6797 L1341,1559.6797 " fill="#FFF8E1" style="stroke:#C2670A;stroke-width:0.5;"/><text fill="#000000" font-family="sans-serif" font-size="13" lengthAdjust="spacing" textLength="268.8042" x="1068" y="1578.1748">Spent immediately, so the value that briefly sat</text><text fill="#000000" font-family="sans-serif" font-size="13" lengthAdjust="spacing" textLength="244.9688" x="1068" y="1594.5264">in the address bar is already rotated away.</text><polygon fill="#59606F" points="33.7793,1625.7344,23.7793,1629.7344,33.7793,1633.7344,29.7793,1629.7344" style="stroke:#59606F;stroke-width:1.0;"/><line style="stroke:#59606F;stroke-width:1.0;stroke-dasharray:2.0,2.0;" x1="27.7793" x2="1206.0581" y1="1629.7344" y2="1629.7344"/><text fill="#000000" font-family="sans-serif" font-size="13" lengthAdjust="spacing" textLength="61.439" x="39.7793" y="1624.8779">dashboard</text><!--SRC=[fLTTJnj757tVNt557W3BDfG8cj0q5H18AwK11TA-y3BUlUiTUJspdPd5k5Mb_eZ-mlwIdZix2pOVJTKIAR9tx-UvvymTRz9xQwSrazTJCz9cIDhaTLjeCwLGCOM5fOLQUjA1j2V7PUkv66URsIPzObEmEoHgQcL2Ew-fiBdVARIQEZNtEsLj5wDf33-IyDgC6rXbS3szRMgT8wPXvKQBIWSUqiVpAmfE6TyenoOSTWNmRSnSA3SRaZ85gLKZcgXyDdMsDGN2kbYHfqcDfsGDRCMFRZGls0q9YVAAvch6FWPVL1QjfuAfDOvLeIOrZpC_qmOPyFG-mOcjhQCNP_5lnS9Ngh0BGQnKjUVLD_nBooPd-YqZEdBEBbAC_TS7kmTdUFX1b_n16pws3fMdjoSlJuxUlSBR2-K2O6e0xvh1_l7-yRk31mQFwdmd_xBVL-enDdIr73_HrAlJh-JDMY5x1r_l7Y545dG0KkjSoJAL1vXzzkoovhuIEaQZ3vzjI4gCvzfiNJPEmBhal7KwBBStI7dg7gwvd1-reTgxRFESlVyUew_PHTFkoMFRIzJrWxbaTwE1kLZ61rcXWfeepmJkkdM_ZSkBeskpOnNSTt9LrpBkhg2BeooJrcZqjk-83Ya7RsUUDawi2Tgqu90ELG9c8-lju9AwFAJtfrVK9TZRaV-jqx-geAtPwRIHPN4iJa-hGBRiaP1H879b6q_preFf73dhrPm9CQQGKvzanjnuUCZx1Y3BixLKK0QOY21QDE617Xx28RTsflaRyW6OY62iwOD7hJaEhJCKBBwX6ioKudD9rAC5_K1EKMm8WqxcsizLoAinNLLAn0kdHRManjcYpMCvZTKcUDWx5Tk6cOIST1oH5F11HZm5IwTLVFiJkvnhrBG0RQ1HiHJeiYp1C5gRrClTFIcy6ytgP1ABCKjhFCwGB3rux1xRYmF-BhS5VpiUZvyVSMs1MZzeCU_dsrUtui2tUQNCj9kes0wfjgh35J2LMcYXwj0_kD4G9HKCzXakXXZH0wnP05j9T764B8uBxJWFz89nzZWfdxOwLPqfNRUEawgsCyR1HKW2KeSbtR3JfNuOivCTubeZCSGsZ-nARxR4L7HLRujZCXVFA4Cu-lXXY-V8FYG39W-fqJaunjkPK0iT6qlnlL1r5Gx2NmeqMgjcC4XRQJ28HW_KrEV-KM2ILh1C9ajIHU7WFxusFsE-jWsH-a9n5WjXUzo1bZek8tJ4I87dUOwJ4wIjPLyivLIHTG8Efw1hjRxjJXrKK6eG5gbZUy_tazH99OOi0F2jzY4gkilxV9ClJb-TxP- -ZWPTS2yeHW9B92VR3ajtCEXBhvGV3CR9uQD5xl19Z9HPBY8KLeO0F1g567_zyQV4IUPtj9GFG03BbBoTyyGYiFP3oLHOzibSr0m2mmEMdTwNm7O9cww0Epadf5ipCtPXUb27SgBPKSmg-0WYvsTd_vCNM7odkwUxgSOhW5HmgTewZEbSoB3GSUPB8OSq2DWWjhwdU1vton08GSuJpe60nr4eGvTXnttHdUVo9t4cRGZM_FUcFpx3hnp51RuVDuwtKa-XhQ9lAZ9WU6sWiKPvly2k5mfKGvgoOGVl8aOJPVvxWXfUV96RFITbpxGDPbD20-0UwRAJpcg58a1rnp9z0_bFKHcm6u9X7I5p2D4m3YeSWQ95WGoVnYkJVDoJ19O9QEmUe0ndTD_pCmRpp2RolBigQXytLp_Zk8TnnxF91rrp4vD7JJyUAVPOEjOI5pjKLux69m_gD-2G1v_UFeLdSbvdxYcANtP9L4qHdrOSHCHZ-i0XdY3e_Lwy8ApGfRyph-pVJK-nZiZfuHrp7vWK5ZtZ1qDOaJqaaimZxrbkwntTU__IuU8a40d8Md1HHJy29SB97GZPaTZ4tnunvTDgaRaWXpPVWZLO5Ftj6-03LLLNykqVi5tX48Zgr7IENJSO31D7f0tSfe0txY-0zV2EhBrjsY0ajulkyWHRN4lbDmW8ZBQnlPTzdhXyoaWcL8zhX8zth4zSOdYWA132W9uaLoIODBlISxf6zBKCvPiXQ0PtzUNOCNwjvNmfjuSxp_vQSd5-YOjCl0idgBgxgPMsvK8izu7OttmER16YNYP9CjsekkLEp1EdkQpHiv8J8ItoTAHXd2uAFAqWPqFKgCAeL-vqiJJKzhcxZHKWnSGgLsH_0m00]--></g></svg>